<svg width="24" height="24" viewBox="0 0 24 24" fill="none" xmlns="http://www.w3.org/2000/svg">
<rect width="24" height="24" fill="#424242"/>
<path d="M-11282 -4800C-11282 -4801.1 -11281.1 -4802 -11280 -4802H2196C2197.1 -4802 2198 -4801.1 2198 -4800V9642C2198 9643.1 2197.1 9644 2196 9644H-11280C-11281.1 9644 -11282 9643.1 -11282 9642V-4800Z" fill="#2C2B2B"/>
<g clip-path="url(#clip0_3902_23695)">
<rect width="375" height="800" transform="translate(-176 -598)" fill="#F4F6FA"/>
<path d="M11.1 22.75H6.9C2.99 22.75 1.25 21.01 1.25 17.1V12.9C1.25 8.99 2.99 7.25 6.9 7.25H11.1C15.01 7.25 16.75 8.99 16.75 12.9V17.1C16.75 21.01 15.01 22.75 11.1 22.75ZM6.9 8.75C3.8 8.75 2.75 9.8 2.75 12.9V17.1C2.75 20.2 3.8 21.25 6.9 21.25H11.1C14.2 21.25 15.25 20.2 15.25 17.1V12.9C15.25 9.8 14.2 8.75 11.1 8.75H6.9Z" fill="#0B091C"/>
<path d="M17.1 16.75H16C15.59 16.75 15.25 16.41 15.25 16V12.9C15.25 9.8 14.2 8.75 11.1 8.75H8C7.59 8.75 7.25 8.41 7.25 8V6.9C7.25 2.99 8.99 1.25 12.9 1.25H17.1C21.01 1.25 22.75 2.99 22.75 6.9V11.1C22.75 15.01 21.01 16.75 17.1 16.75ZM16.75 15.25H17.1C20.2 15.25 21.25 14.2 21.25 11.1V6.9C21.25 3.8 20.2 2.75 17.1 2.75H12.9C9.8 2.75 8.75 3.8 8.75 6.9V7.25H11.1C15.01 7.25 16.75 8.99 16.75 12.9V15.25Z" fill="#0B091C"/>
</g>
<path d="M-11280 -4801H2196V-4803H-11280V-4801ZM2197 -4800V9642H2199V-4800H2197ZM2196 9643H-11280V9645H2196V9643ZM-11281 9642V-4800H-11283V9642H-11281ZM-11280 9643C-11280.6 9643 -11281 9642.55 -11281 9642H-11283C-11283 9643.66 -11281.7 9645 -11280 9645V9643ZM2197 9642C2197 9642.55 2196.55 9643 2196 9643V9645C2197.66 9645 2199 9643.66 2199 9642H2197ZM2196 -4801C2196.55 -4801 2197 -4800.55 2197 -4800H2199C2199 -4801.66 2197.66 -4803 2196 -4803V-4801ZM-11280 -4803C-11281.7 -4803 -11283 -4801.66 -11283 -4800H-11281C-11281 -4800.55 -11280.6 -4801 -11280 -4801V-4803Z" fill="white" fill-opacity="0.1"/>
<defs>
<clipPath id="clip0_3902_23695">
<rect width="375" height="800" fill="white" transform="translate(-176 -598)"/>
</clipPath>
</defs>
</svg>
